<svg xmlns="http://www.w3.org/2000/svg" viewBox="0 0 900 400"><rect width="100%" height="100%" fill="white"/><text x="78" y="25" font-size="18" font-family="sans-serif">2026-09-26T07-50-23-909Z-hd-sudden-burst-hybrid-r2-a07532a9: running ECS tasks (sampled)</text><text x="5" y="48" font-size="12" font-family="sans-serif">Tasks</text><line x1="78" y1="340" x2="880" y2="340" stroke="#333"/><line x1="78" y1="48" x2="78" y2="340" stroke="#333"/><text x="78" y="357" font-size="11">0 min</text><text x="835" y="357" font-size="11">10.7 min</text><text x="30" y="54" font-size="11">5.0</text><polyline fill="none" stroke="#1463a5" stroke-width="2" points="78.0,281.6 93.2,281.6 105.8,281.6 117.8,281.6 130.7,281.6 143.0,281.6 155.5,281.6 168.0,281.6 180.1,281.6 192.9,281.6 205.3,281.6 217.6,281.6 230.2,281.6 242.6,281.6 254.7,281.6 267.2,281.6 279.7,281.6 292.1,281.6 304.5,281.6 317.3,281.6 329.4,281.6 342.2,281.6 354.6,281.6 367.2,281.6 379.3,281.6 392.0,281.6 404.5,106.4 416.9,48.0 429.4,48.0 441.5,48.0 454.3,48.0 466.8,48.0 478.9,48.0 491.7,48.0 504.0,48.0 516.5,48.0 528.8,48.0 541.5,48.0 553.9,48.0 566.3,48.0 578.4,48.0 591.1,48.0 603.5,48.0 616.2,48.0 628.5,48.0 640.9,48.0 653.4,48.0 666.0,48.0 677.9,48.0 690.4,48.0 703.2,48.0 715.6,48.0 727.8,48.0 740.5,48.0 753.1,48.0 765.7,48.0 778.4,48.0 790.6,48.0 802.8,48.0 815.3,48.0 827.8,48.0 841.4,48.0 853.0,48.0 864.6,48.0 880.0,48.0"/><text x="78" y="387" fill="#1463a5" font-size="12">Running</text></svg>