<svg xmlns="http://www.w3.org/2000/svg" viewBox="0 0 900 400"><rect width="100%" height="100%" fill="white"/><text x="78" y="25" font-size="18" font-family="sans-serif">2026-09-23T22-46-21-278Z-hd-sudden-burst-reactive-r2-01791855: visible analysis backlog (SQS samples)</text><text x="5" y="48" font-size="12" font-family="sans-serif">Jobs</text><line x1="78" y1="340" x2="880" y2="340" stroke="#333"/><line x1="78" y1="48" x2="78" y2="340" stroke="#333"/><text x="78" y="357" font-size="11">0 min</text><text x="835" y="357" font-size="11">10.5 min</text><text x="30" y="54" font-size="11">1142.0</text><polyline fill="none" stroke="#1463a5" stroke-width="2" points="78.0,340.0 94.8,335.4 105.9,338.5 120.3,340.0 132.0,340.0 145.5,329.8 157.4,340.0 170.5,339.0 182.4,340.0 195.2,340.0 208.8,335.9 234.8,340.0 248.2,335.9 258.9,340.0 277.6,340.0 283.5,340.0 297.8,340.0 309.2,340.0 324.6,334.9 334.3,340.0 348.6,340.0 360.3,316.5 375.1,302.2 386.3,263.8 400.1,238.2 410.9,216.8 424.4,201.4 438.9,173.3 449.9,145.2 462.0,127.3 475.9,117.0 487.8,88.9 501.1,94.0 513.7,48.0 528.7,338.0 550.9,340.0 563.2,340.0 576.4,340.0 591.2,339.0 601.4,340.0 614.1,340.0 626.8,340.0 641.5,340.0 652.4,340.0 668.8,340.0 678.7,340.0 690.1,340.0 704.5,340.0 715.9,340.0 729.1,337.4 741.2,340.0 753.7,340.0 767.9,340.0 781.1,340.0 792.2,340.0 804.7,340.0 818.3,340.0 830.5,340.0 842.6,340.0 855.6,340.0 868.3,340.0 880.0,340.0"/><text x="78" y="387" fill="#1463a5" font-size="12">Visible</text></svg>