<svg xmlns="http://www.w3.org/2000/svg" viewBox="0 0 900 400"><rect width="100%" height="100%" fill="white"/><text x="78" y="25" font-size="18" font-family="sans-serif">PREDICTABLE_RAMP: hybrid observed vs predicted arrival (all-repeat means)</text><text x="5" y="48" font-size="12" font-family="sans-serif">Jobs/s</text><line x1="78" y1="340" x2="880" y2="340" stroke="#333"/><line x1="78" y1="48" x2="78" y2="340" stroke="#333"/><text x="78" y="357" font-size="11">0 min</text><text x="835" y="357" font-size="11">10.5 min</text><text x="30" y="54" font-size="11">77.0</text><polyline fill="none" stroke="#1463a5" stroke-width="2" points="78.0,289.5 90.7,295.8 103.5,308.4 116.2,295.8 128.9,302.1 141.7,302.1 154.4,302.1 167.1,302.1 179.8,308.4 192.6,308.4 205.3,289.5 218.0,302.1 230.8,302.1 243.5,308.4 256.2,295.8 269.0,276.8 281.7,283.1 294.4,270.5 307.1,276.8 319.9,276.8 332.6,276.8 345.3,283.1 358.1,276.8 370.8,270.5 383.5,283.1 396.3,270.5 409.0,276.8 421.7,238.9 434.4,251.5 447.2,257.9 459.9,232.6 472.6,245.2 485.4,251.5 498.1,245.2 510.8,238.9 523.6,238.9 536.3,245.2 549.0,245.2 561.7,257.9 574.5,207.3 587.2,213.6 599.9,213.6 612.7,220.0 625.4,220.0 638.1,201.0 650.9,213.6 663.6,232.6 676.3,194.7 689.0,207.3 701.8,207.3 714.5,207.3 727.2,175.7 740.0,131.5 752.7,150.4 765.4,156.8 778.2,144.1 790.9,144.1 803.6,163.1 816.3,137.8 829.1,156.8 841.8,144.1 854.5,150.4 867.3,207.3"/><polyline fill="none" stroke="#d55e00" stroke-width="2" points="167.1,314.4 179.8,312.5 192.6,312.3 205.3,302.2 218.0,296.9 230.8,296.9 243.5,303.7 256.2,295.2 269.0,267.8 281.7,261.2 294.4,247.8 307.1,230.6 319.9,230.9 332.6,238.2 345.3,266.1 358.1,280.2 370.8,271.6 383.5,285.5 396.3,271.6 409.0,271.6 421.7,230.6 434.4,213.6 447.2,217.3 459.9,193.6 472.6,188.7 485.4,211.6 498.1,222.3 510.8,240.0 523.6,226.2 536.3,233.2 549.0,248.9 561.7,253.8 574.5,211.0 587.2,192.4 599.9,177.2 612.7,170.5 625.4,169.0 638.1,159.2 650.9,175.1 663.6,234.2 676.3,203.3 689.0,196.4 701.8,191.3 714.5,194.9 727.2,167.7 740.0,83.8 752.7,53.4 765.4,68.2 778.2,48.0 790.9,55.7 803.6,101.2 816.3,131.4 829.1,166.2 841.8,143.6 854.5,145.3 867.3,225.3"/><text x="78" y="387" fill="#1463a5" font-size="12">Observed arrival</text><text x="268" y="387" fill="#d55e00" font-size="12">80 s forecast</text></svg>